<mxfile host="app.diagrams.net" modified="2020-06-19T00:25:44.926Z" agent="5.0 (Windows NT 10.0; Win64; x64) AppleWebKit/537.36 (KHTML, like Gecko) Chrome/83.0.4103.97 Safari/537.36" etag="i5K4ZcnrZmnN1x6p3eAY" version="13.2.6" type="github">
  <diagram id="Z-ZSMigzUdmGPvFN3pP_" name="第 1 页">
    <mxGraphModel dx="877" dy="827" grid="0" gridSize="10" guides="1" tooltips="1" connect="1" arrows="1" fold="1" page="1" pageScale="1" pageWidth="827" pageHeight="1169" math="0" shadow="0">
      <root>
        <mxCell id="0" />
        <mxCell id="1" parent="0" />
        <mxCell id="u8QA-t560RThEC0IdLs9-2" value="前端" style="text;html=1;strokeColor=none;fillColor=none;align=center;verticalAlign=middle;whiteSpace=wrap;rounded=0;fontStyle=1;fontSize=20;" vertex="1" parent="1">
          <mxGeometry x="76" y="74" width="46" height="20" as="geometry" />
        </mxCell>
        <mxCell id="u8QA-t560RThEC0IdLs9-3" value="网关" style="text;html=1;strokeColor=none;fillColor=none;align=center;verticalAlign=middle;whiteSpace=wrap;rounded=0;fontStyle=1;fontSize=20;" vertex="1" parent="1">
          <mxGeometry x="77" y="173" width="45" height="20" as="geometry" />
        </mxCell>
        <mxCell id="u8QA-t560RThEC0IdLs9-4" value="业务" style="text;html=1;strokeColor=none;fillColor=none;align=center;verticalAlign=middle;whiteSpace=wrap;rounded=0;fontStyle=1;fontSize=20;" vertex="1" parent="1">
          <mxGeometry x="74" y="305" width="48" height="20" as="geometry" />
        </mxCell>
        <mxCell id="u8QA-t560RThEC0IdLs9-5" value="能力" style="text;html=1;strokeColor=none;fillColor=none;align=center;verticalAlign=middle;whiteSpace=wrap;rounded=0;fontStyle=1;fontSize=20;" vertex="1" parent="1">
          <mxGeometry x="73" y="431" width="49" height="20" as="geometry" />
        </mxCell>
        <mxCell id="u8QA-t560RThEC0IdLs9-6" value="存储" style="text;html=1;strokeColor=none;fillColor=none;align=center;verticalAlign=middle;whiteSpace=wrap;rounded=0;fontStyle=1;fontSize=20;" vertex="1" parent="1">
          <mxGeometry x="76" y="552" width="45.5" height="20" as="geometry" />
        </mxCell>
        <mxCell id="u8QA-t560RThEC0IdLs9-7" value="运行环境" style="text;html=1;strokeColor=none;fillColor=none;align=center;verticalAlign=middle;whiteSpace=wrap;rounded=0;fontStyle=1;fontSize=20;" vertex="1" parent="1">
          <mxGeometry x="73" y="719" width="56" height="20" as="geometry" />
        </mxCell>
        <mxCell id="u8QA-t560RThEC0IdLs9-8" value="" style="rounded=0;whiteSpace=wrap;html=1;fillColor=#dae8fc;strokeColor=#6c8ebf;" vertex="1" parent="1">
          <mxGeometry x="156" y="54" width="602" height="57" as="geometry" />
        </mxCell>
        <mxCell id="u8QA-t560RThEC0IdLs9-9" value="pc端官网" style="rounded=0;whiteSpace=wrap;html=1;" vertex="1" parent="1">
          <mxGeometry x="163" y="62.5" width="87" height="40" as="geometry" />
        </mxCell>
        <mxCell id="u8QA-t560RThEC0IdLs9-10" value="乘客端" style="rounded=0;whiteSpace=wrap;html=1;" vertex="1" parent="1">
          <mxGeometry x="258" y="62.5" width="87" height="40" as="geometry" />
        </mxCell>
        <mxCell id="u8QA-t560RThEC0IdLs9-11" value="司机端" style="rounded=0;whiteSpace=wrap;html=1;" vertex="1" parent="1">
          <mxGeometry x="358" y="62.5" width="87" height="40" as="geometry" />
        </mxCell>
        <mxCell id="u8QA-t560RThEC0IdLs9-12" value="boss端" style="rounded=0;whiteSpace=wrap;html=1;" vertex="1" parent="1">
          <mxGeometry x="458" y="62.5" width="87" height="40" as="geometry" />
        </mxCell>
        <mxCell id="u8QA-t560RThEC0IdLs9-13" value="开放平台" style="rounded=0;whiteSpace=wrap;html=1;" vertex="1" parent="1">
          <mxGeometry x="561" y="62.5" width="87" height="40" as="geometry" />
        </mxCell>
        <mxCell id="u8QA-t560RThEC0IdLs9-14" value="nginx负载均衡" style="rounded=0;whiteSpace=wrap;html=1;fillColor=#d5e8d4;strokeColor=#82b366;" vertex="1" parent="1">
          <mxGeometry x="156" y="154.5" width="602" height="36.5" as="geometry" />
        </mxCell>
        <mxCell id="u8QA-t560RThEC0IdLs9-15" value="网关：鉴权，限流，访问频率检查" style="rounded=0;whiteSpace=wrap;html=1;fillColor=#d5e8d4;strokeColor=#82b366;" vertex="1" parent="1">
          <mxGeometry x="156" y="205" width="602" height="36.5" as="geometry" />
        </mxCell>
        <mxCell id="u8QA-t560RThEC0IdLs9-16" value="" style="rounded=0;whiteSpace=wrap;html=1;fillColor=#ffe6cc;strokeColor=#d79b00;" vertex="1" parent="1">
          <mxGeometry x="156" y="267" width="376" height="102" as="geometry" />
        </mxCell>
        <mxCell id="u8QA-t560RThEC0IdLs9-30" value="" style="rounded=0;whiteSpace=wrap;html=1;fillColor=#fff2cc;strokeColor=#d6b656;" vertex="1" parent="1">
          <mxGeometry x="156" y="394" width="190" height="104" as="geometry" />
        </mxCell>
        <mxCell id="u8QA-t560RThEC0IdLs9-17" value="用户管理" style="rounded=0;whiteSpace=wrap;html=1;" vertex="1" parent="1">
          <mxGeometry x="160" y="278.5" width="81" height="34" as="geometry" />
        </mxCell>
        <mxCell id="u8QA-t560RThEC0IdLs9-18" value="司机管理" style="rounded=0;whiteSpace=wrap;html=1;" vertex="1" parent="1">
          <mxGeometry x="251" y="278.5" width="81" height="34" as="geometry" />
        </mxCell>
        <mxCell id="u8QA-t560RThEC0IdLs9-26" value="订单管理" style="rounded=0;whiteSpace=wrap;html=1;" vertex="1" parent="1">
          <mxGeometry x="342" y="278.5" width="81" height="34" as="geometry" />
        </mxCell>
        <mxCell id="u8QA-t560RThEC0IdLs9-27" value="评论管理" style="rounded=0;whiteSpace=wrap;html=1;" vertex="1" parent="1">
          <mxGeometry x="160" y="323.5" width="81" height="34" as="geometry" />
        </mxCell>
        <mxCell id="u8QA-t560RThEC0IdLs9-28" value="乘客管理" style="rounded=0;whiteSpace=wrap;html=1;" vertex="1" parent="1">
          <mxGeometry x="251" y="323.5" width="81" height="34" as="geometry" />
        </mxCell>
        <mxCell id="u8QA-t560RThEC0IdLs9-29" value="..." style="rounded=0;whiteSpace=wrap;html=1;" vertex="1" parent="1">
          <mxGeometry x="342" y="323.5" width="81" height="34" as="geometry" />
        </mxCell>
        <mxCell id="u8QA-t560RThEC0IdLs9-32" value="用户API" style="rounded=0;whiteSpace=wrap;html=1;" vertex="1" parent="1">
          <mxGeometry x="169" y="408.01" width="75" height="33.75" as="geometry" />
        </mxCell>
        <mxCell id="u8QA-t560RThEC0IdLs9-33" value="支付API" style="rounded=0;whiteSpace=wrap;html=1;" vertex="1" parent="1">
          <mxGeometry x="253" y="408" width="75" height="33.75" as="geometry" />
        </mxCell>
        <mxCell id="u8QA-t560RThEC0IdLs9-34" value="订单API" style="rounded=0;whiteSpace=wrap;html=1;" vertex="1" parent="1">
          <mxGeometry x="169" y="453.25" width="75" height="33.75" as="geometry" />
        </mxCell>
        <mxCell id="u8QA-t560RThEC0IdLs9-35" value="消息API" style="rounded=0;whiteSpace=wrap;html=1;" vertex="1" parent="1">
          <mxGeometry x="254" y="453.24" width="75" height="33.75" as="geometry" />
        </mxCell>
        <mxCell id="u8QA-t560RThEC0IdLs9-36" value="日志记录" style="rounded=0;whiteSpace=wrap;html=1;fillColor=#e1d5e7;strokeColor=#9673a6;" vertex="1" parent="1">
          <mxGeometry x="576" y="267" width="62" height="231" as="geometry" />
        </mxCell>
        <mxCell id="u8QA-t560RThEC0IdLs9-37" value="权限控制" style="rounded=0;whiteSpace=wrap;html=1;fillColor=#e1d5e7;strokeColor=#9673a6;" vertex="1" parent="1">
          <mxGeometry x="661" y="267" width="67" height="231" as="geometry" />
        </mxCell>
        <mxCell id="u8QA-t560RThEC0IdLs9-38" value="中间件" style="rounded=0;whiteSpace=wrap;html=1;verticalAlign=top;fillColor=#fff2cc;strokeColor=#d6b656;" vertex="1" parent="1">
          <mxGeometry x="376" y="394" width="153" height="104" as="geometry" />
        </mxCell>
        <mxCell id="u8QA-t560RThEC0IdLs9-39" value="文件" style="rounded=0;whiteSpace=wrap;html=1;" vertex="1" parent="1">
          <mxGeometry x="383" y="417.25" width="66" height="30.75" as="geometry" />
        </mxCell>
        <mxCell id="u8QA-t560RThEC0IdLs9-40" value="缓存" style="rounded=0;whiteSpace=wrap;html=1;" vertex="1" parent="1">
          <mxGeometry x="383" y="461" width="66" height="30.75" as="geometry" />
        </mxCell>
        <mxCell id="u8QA-t560RThEC0IdLs9-41" value="队列" style="rounded=0;whiteSpace=wrap;html=1;" vertex="1" parent="1">
          <mxGeometry x="458" y="417.25" width="66" height="30.75" as="geometry" />
        </mxCell>
        <mxCell id="u8QA-t560RThEC0IdLs9-42" value="" style="rounded=0;whiteSpace=wrap;html=1;fillColor=#f5f5f5;strokeColor=#666666;fontColor=#333333;" vertex="1" parent="1">
          <mxGeometry x="156" y="546" width="574" height="66" as="geometry" />
        </mxCell>
        <mxCell id="u8QA-t560RThEC0IdLs9-43" value="mysql" style="rounded=0;whiteSpace=wrap;html=1;" vertex="1" parent="1">
          <mxGeometry x="163" y="558" width="77" height="42" as="geometry" />
        </mxCell>
        <mxCell id="u8QA-t560RThEC0IdLs9-44" value="redis" style="rounded=0;whiteSpace=wrap;html=1;" vertex="1" parent="1">
          <mxGeometry x="263" y="558" width="77" height="42" as="geometry" />
        </mxCell>
        <mxCell id="u8QA-t560RThEC0IdLs9-45" value="..." style="rounded=0;whiteSpace=wrap;html=1;" vertex="1" parent="1">
          <mxGeometry x="358" y="558" width="77" height="42" as="geometry" />
        </mxCell>
        <mxCell id="u8QA-t560RThEC0IdLs9-47" value="linux，docker，阿里云..." style="rounded=0;whiteSpace=wrap;html=1;fillColor=#f8cecc;strokeColor=#b85450;" vertex="1" parent="1">
          <mxGeometry x="156" y="699" width="571" height="60" as="geometry" />
        </mxCell>
      </root>
    </mxGraphModel>
  </diagram>
</mxfile>
